<svg width="30" height="32" viewBox="0 0 30 32" fill="none" xmlns="http://www.w3.org/2000/svg">
<g clip-path="url(#clip0)">
<path d="M6.67188 13.4412L0.075 23.1844C-0.1175 23.4969 0.08125 23.9031 0.445625 23.9431L13.4619 25.3225L6.67188 13.4412ZM0.463125 19.7144L5.16875 12.0675L0.37875 9.19375C0.211875 9.09375 0 9.21375 0 9.40812V19.5837C0 19.8356 0.330625 19.9294 0.463125 19.7144ZM1.14062 26.475L13.2906 31.9538C13.6219 32.1069 14 31.8644 14 31.5V27.3956L1.27813 26.0019C1 25.9706 0.88875 26.3512 1.14062 26.475ZM6.21688 10.3638L11.2125 1.43C11.4837 0.98875 10.9881 0.476875 10.5387 0.73375L1.11312 6.89687C0.95875 6.99813 0.96375 7.22563 1.12125 7.32062L6.21688 10.3638ZM15 11H21.8256L15.8519 0.47625C15.6562 0.15875 15.3281 0 15 0C14.6719 0 14.3438 0.15875 14.1481 0.47625L8.17437 11H15ZM29.6213 9.19375L24.8312 12.0681L29.5369 19.715C29.6687 19.93 30 19.8363 30 19.5837V9.40812C30 9.21375 29.7881 9.09375 29.6213 9.19375ZM23.7831 10.3638L28.8787 7.32C29.0369 7.225 29.0413 6.9975 28.8869 6.89625L19.4613 0.73375C19.0119 0.476875 18.5163 0.98875 18.7875 1.43L23.7831 10.3638ZM28.7219 26.0019L16 27.395V31.4994C16 31.8644 16.3781 32.1063 16.7094 31.9531L28.8594 26.4744C29.1112 26.3512 29 25.9706 28.7219 26.0019ZM23.3281 13.4412L16.5387 25.3225L29.555 23.9431C29.9194 23.9025 30.1181 23.4969 29.9256 23.1844L23.3281 13.4412ZM15 13H8.72313L15 23.9844L21.2769 13H15Z" fill="white"/>
</g>
<defs>
<clipPath id="clip0">
<rect width="30" height="32" fill="white"/>
</clipPath>
</defs>
</svg>
