<svg width="15" height="15" viewBox="0 0 15 15" fill="none" xmlns="http://www.w3.org/2000/svg">
<g clip-path="url(#clip0)">
<path d="M1.40625 1.40625C1.12812 1.40625 0.856237 1.48873 0.62498 1.64325C0.393723 1.79777 0.213481 2.01739 0.107045 2.27435C0.000609308 2.53131 -0.0272391 2.81406 0.0270213 3.08685C0.0812818 3.35963 0.215214 3.6102 0.411882 3.80687C0.608549 4.00354 0.859119 4.13747 1.1319 4.19173C1.40469 4.24599 1.68744 4.21814 1.9444 4.11171C2.20136 4.00527 2.42098 3.82503 2.5755 3.59377C2.73003 3.36251 2.8125 3.09063 2.8125 2.8125C2.8125 2.43954 2.66434 2.08185 2.40062 1.81813C2.1369 1.55441 1.77921 1.40625 1.40625 1.40625ZM1.40625 6.09375C1.12812 6.09375 0.856237 6.17623 0.62498 6.33075C0.393723 6.48527 0.213481 6.70489 0.107045 6.96185C0.000609308 7.21881 -0.0272391 7.50156 0.0270213 7.77435C0.0812818 8.04713 0.215214 8.2977 0.411882 8.49437C0.608549 8.69104 0.859119 8.82497 1.1319 8.87923C1.40469 8.93349 1.68744 8.90564 1.9444 8.79921C2.20136 8.69277 2.42098 8.51253 2.5755 8.28127C2.73003 8.05001 2.8125 7.77813 2.8125 7.5C2.8125 7.12704 2.66434 6.76935 2.40062 6.50563C2.1369 6.24191 1.77921 6.09375 1.40625 6.09375ZM1.40625 10.7812C1.12812 10.7812 0.856237 10.8637 0.62498 11.0182C0.393723 11.1728 0.213481 11.3924 0.107045 11.6494C0.000609308 11.9063 -0.0272391 12.1891 0.0270213 12.4618C0.0812818 12.7346 0.215214 12.9852 0.411882 13.1819C0.608549 13.3785 0.859119 13.5125 1.1319 13.5667C1.40469 13.621 1.68744 13.5931 1.9444 13.4867C2.20136 13.3803 2.42098 13.2 2.5755 12.9688C2.73003 12.7375 2.8125 12.4656 2.8125 12.1875C2.8125 11.8145 2.66434 11.4569 2.40062 11.1931C2.1369 10.9294 1.77921 10.7812 1.40625 10.7812ZM14.5313 11.25H5.15625C5.03193 11.25 4.9127 11.2994 4.82479 11.3873C4.73689 11.4752 4.6875 11.5944 4.6875 11.7188V12.6562C4.6875 12.7806 4.73689 12.8998 4.82479 12.9877C4.9127 13.0756 5.03193 13.125 5.15625 13.125H14.5313C14.6556 13.125 14.7748 13.0756 14.8627 12.9877C14.9506 12.8998 15 12.7806 15 12.6562V11.7188C15 11.5944 14.9506 11.4752 14.8627 11.3873C14.7748 11.2994 14.6556 11.25 14.5313 11.25ZM14.5313 1.875H5.15625C5.03193 1.875 4.9127 1.92439 4.82479 2.01229C4.73689 2.1002 4.6875 2.21943 4.6875 2.34375V3.28125C4.6875 3.40557 4.73689 3.5248 4.82479 3.61271C4.9127 3.70061 5.03193 3.75 5.15625 3.75H14.5313C14.6556 3.75 14.7748 3.70061 14.8627 3.61271C14.9506 3.5248 15 3.40557 15 3.28125V2.34375C15 2.21943 14.9506 2.1002 14.8627 2.01229C14.7748 1.92439 14.6556 1.875 14.5313 1.875ZM14.5313 6.5625H5.15625C5.03193 6.5625 4.9127 6.61189 4.82479 6.69979C4.73689 6.7877 4.6875 6.90693 4.6875 7.03125V7.96875C4.6875 8.09307 4.73689 8.2123 4.82479 8.30021C4.9127 8.38811 5.03193 8.4375 5.15625 8.4375H14.5313C14.6556 8.4375 14.7748 8.38811 14.8627 8.30021C14.9506 8.2123 15 8.09307 15 7.96875V7.03125C15 6.90693 14.9506 6.7877 14.8627 6.69979C14.7748 6.61189 14.6556 6.5625 14.5313 6.5625Z" fill="#737373"/>
</g>
<defs>
<clipPath id="clip0">
<rect width="15" height="15" fill="white"/>
</clipPath>
</defs>
</svg>
